<svg width="29" height="31" viewBox="0 0 29 31" fill="none" xmlns="http://www.w3.org/2000/svg">
<path d="M16.5613 4.22168L15.63 7.24072C15.12 8.89366 16.1099 10.6342 17.7912 11.041L18.692 11.2589" stroke="white" stroke-width="3" stroke-linecap="round" stroke-linejoin="round"/>
<path d="M16.5336 4.2717L12.0922 3.08163L10.2931 2.59956C8.79601 2.19843 7.24134 3.00405 6.72865 4.46667C6.60605 4.81643 6.47509 5.19287 6.33825 5.5902M4.29793 12.0601C3.82659 13.5354 4.1297 12.4247 3.76057 13.8023C3.35403 15.3196 3.24627 15.8759 3.24627 17.6678M21.8969 17.2513C21.2018 19.3298 22.0775 16.5049 21.5261 18.5626C20.9597 20.6765 20.9345 23.0709 21.0959 25.1372C21.2748 27.4293 19.1434 29.4798 16.9227 28.8848L13.0141 27.8375M8.57272 26.6474L7.1116 26.2559C5.24116 25.7547 3.67846 24.3855 3.3417 22.4786C3.30648 22.2791 3.27425 22.0749 3.24627 21.8677" stroke="white" stroke-width="3" stroke-linecap="round"/>
<rect x="7.3396" y="14.6207" width="3.48215" height="3.48215" rx="1.3" transform="rotate(15 7.3396 14.6207)" fill="white"/>
<rect x="14.1232" y="16.4383" width="3.48215" height="3.48215" rx="1.3" transform="rotate(15 14.1232 16.4383)" fill="white"/>
<path d="M9.12769 20.1807C9.12769 20.1807 9.67889 20.8882 10.5876 21.1317C11.4964 21.3752 12.4185 21.0624 12.4185 21.0624" stroke="white" stroke-width="2" stroke-linecap="round" stroke-linejoin="round"/>
<path d="M25.0154 9.75804L25.6654 6.74363L25.9023 5.64904C26.2465 4.05836 25.2597 2.48334 23.6781 2.09927L22.1035 1.71687" stroke="white" stroke-width="3" stroke-linecap="round" stroke-linejoin="round"/>
</svg>
