<svg width="28" height="32" viewBox="0 0 28 32" fill="none" xmlns="http://www.w3.org/2000/svg">
<path d="M15.8467 4.54813L14.9154 7.56717C14.4054 9.22011 15.3953 10.9607 17.0766 11.3674L17.9774 11.5854" stroke="white" stroke-width="4" stroke-linecap="round" stroke-linejoin="round"/>
<path d="M15.819 4.59814L11.3776 3.40808L9.57847 2.92601C8.08141 2.52487 6.52674 3.3305 6.01405 4.79311C5.89145 5.14288 5.76049 5.51932 5.62365 5.91665M3.58333 12.3865C3.11199 13.8618 3.4151 12.7512 3.04598 14.1288C2.32095 16.8346 2.48275 20.0001 2.78733 22.3487C3.06518 24.4911 4.7063 26.1293 6.79301 26.6885L16.2081 29.2112C18.4288 29.8062 20.5602 27.7557 20.3813 25.4637C20.2199 23.3974 20.2451 21.003 20.8115 18.889C21.3629 16.8313 20.4872 19.6562 21.1823 17.5777" stroke="white" stroke-width="4" stroke-linecap="round"/>
<rect x="6.87378" y="14.0219" width="3.81041" height="3.81041" rx="1" transform="rotate(15 6.87378 14.0219)" fill="white"/>
<rect x="14.2969" y="16.0109" width="3.81041" height="3.81041" rx="1" transform="rotate(15 14.2969 16.0109)" fill="white"/>
<path d="M9.13269 20.3139C9.13269 20.3139 9.73586 21.0881 10.7303 21.3546C11.7247 21.621 12.7338 21.2788 12.7338 21.2788" stroke="white" stroke-width="2" stroke-linecap="round" stroke-linejoin="round"/>
<path d="M24.9056 13.1068L25.5556 10.0924L25.7925 8.99776C26.1367 7.40709 25.1498 5.83206 23.5683 5.44799L21.9936 5.06559" stroke="white" stroke-width="4" stroke-linecap="round" stroke-linejoin="round"/>
</svg>
